<svg width="46" height="46" viewBox="0 0 46 46" fill="none" xmlns="http://www.w3.org/2000/svg">
<path d="M24.9333 2.26666C24.9333 1.01483 23.9185 0 22.6666 0C21.4147 0 20.4 1.01483 20.4 2.26666V20.4H2.26666C1.01483 20.4 0 21.4147 0 22.6666C0 23.9185 1.01483 24.9333 2.26666 24.9333H20.4V43.0666C20.4 44.3185 21.4147 45.3333 22.6666 45.3333C23.9185 45.3333 24.9333 44.3185 24.9333 43.0666V24.9333H43.0666C44.3185 24.9333 45.3333 23.9185 45.3333 22.6666C45.3333 21.4147 44.3185 20.4 43.0666 20.4H24.9333V2.26666Z" fill="white"/>
</svg>
