<svg width="69" height="69" viewBox="0 0 69 69" fill="none" xmlns="http://www.w3.org/2000/svg">
<path d="M14.4773 25.9915C14.3511 24.8553 13.3277 24.0365 12.1915 24.1626C11.0552 24.2888 10.2364 25.3122 10.3626 26.4485L14.4773 25.9915ZM58.6373 26.4482C58.7634 25.312 57.9445 24.2887 56.8082 24.1626C55.6719 24.0366 54.6485 24.8555 54.5226 25.9918L58.6373 26.4482ZM6.89996 24.15C5.75674 24.15 4.82996 25.0768 4.82996 26.22C4.82996 27.3632 5.75674 28.29 6.89996 28.29V24.15ZM62.1 28.29C63.2431 28.29 64.17 27.3632 64.17 26.22C64.17 25.0768 63.2431 24.15 62.1 24.15V28.29ZM13.3285 25.2943C12.8172 26.3168 13.2317 27.5602 14.2542 28.0715C15.2767 28.5827 16.5202 28.1683 17.0314 27.1457L13.3285 25.2943ZM22.5514 16.1057C23.0627 15.0832 22.6482 13.8398 21.6257 13.3285C20.6032 12.8173 19.3598 13.2317 18.8485 14.2543L22.5514 16.1057ZM51.9685 27.1457C52.4797 28.1683 53.7231 28.5827 54.7457 28.0715C55.7682 27.5602 56.1828 26.3168 55.6714 25.2943L51.9685 27.1457ZM50.1514 14.2543C49.6402 13.2317 48.3968 12.8173 47.3742 13.3285C46.3517 13.8398 45.9371 15.0832 46.4485 16.1057L50.1514 14.2543ZM24.15 42.78C24.15 43.9232 25.0767 44.85 26.22 44.85C27.3632 44.85 28.29 43.9232 28.29 42.78H24.15ZM28.29 37.26C28.29 36.1168 27.3632 35.19 26.22 35.19C25.0767 35.19 24.15 36.1168 24.15 37.26H28.29ZM32.43 42.78C32.43 43.9232 33.3568 44.85 34.5 44.85C35.6431 44.85 36.57 43.9232 36.57 42.78H32.43ZM36.57 37.26C36.57 36.1168 35.6431 35.19 34.5 35.19C33.3568 35.19 32.43 36.1168 32.43 37.26H36.57ZM40.71 42.78C40.71 43.9232 41.6368 44.85 42.78 44.85C43.9231 44.85 44.85 43.9232 44.85 42.78H40.71ZM44.85 37.26C44.85 36.1168 43.9231 35.19 42.78 35.19C41.6368 35.19 40.71 36.1168 40.71 37.26H44.85ZM10.3626 26.4485L12.8825 49.1385L16.9972 48.6814L14.4773 25.9915L10.3626 26.4485ZM12.8825 49.1385C13.3097 52.981 16.557 55.8886 20.4232 55.89L20.4247 51.75C18.6674 51.7494 17.1914 50.4282 16.9972 48.6814L12.8825 49.1385ZM20.4232 55.89H48.576L48.5762 51.75H20.4247L20.4232 55.89ZM48.576 55.89C52.4435 55.8906 55.6929 52.9826 56.1201 49.1388L52.0055 48.6812C51.8112 50.4285 50.3343 51.7503 48.5762 51.75L48.576 55.89ZM56.1201 49.1388L58.6373 26.4482L54.5226 25.9918L52.0055 48.6812L56.1201 49.1388ZM6.89996 28.29H62.1V24.15H6.89996V28.29ZM17.0314 27.1457L22.5514 16.1057L18.8485 14.2543L13.3285 25.2943L17.0314 27.1457ZM55.6714 25.2943L50.1514 14.2543L46.4485 16.1057L51.9685 27.1457L55.6714 25.2943ZM28.29 42.78V37.26H24.15V42.78H28.29ZM36.57 42.78V37.26H32.43V42.78H36.57ZM44.85 42.78V37.26H40.71V42.78H44.85Z" fill="white"/>
</svg>
